<svg width="48" height="48" viewBox="0 0 48 48" fill="none" xmlns="http://www.w3.org/2000/svg">
    <rect width="48" height="48" rx="12" fill="#F06210"/>
    <g clip-path="url(#paint0_angular_2012_138_clip_path)" data-figma-skip-parse="true"><g transform="matrix(-0.00341922 0.0127607 -0.0129446 -0.0034685 24 24)"><foreignObject x="-1075.7" y="-1075.7" width="2151.39" height="2151.39"><div xmlns="http://www.w3.org/1999/xhtml" style="background:conic-gradient(from 90deg,rgba(255, 255, 255, 1) 0deg,rgba(255, 255, 255, 1) 66.4307deg,rgba(255, 255, 255, 0.83) 138.46deg,rgba(255, 255, 255, 1) 207.611deg,rgba(255, 255, 255, 1) 360deg);height:100%;width:100%;opacity:1"></div></foreignObject></g></g><path d="M14.6585 7.82007L40.1799 14.6585L38.1784 22.1282L19.8155 17.2079L14.9785 35.2596L7.82006 33.3415L12.657 15.2898L14.6585 7.82007Z" data-figma-gradient-fill="{&#34;type&#34;:&#34;GRADIENT_ANGULAR&#34;,&#34;stops&#34;:[{&#34;color&#34;:{&#34;r&#34;:1.0,&#34;g&#34;:1.0,&#34;b&#34;:1.0,&#34;a&#34;:1.0},&#34;position&#34;:0.18452964723110199},{&#34;color&#34;:{&#34;r&#34;:1.0,&#34;g&#34;:1.0,&#34;b&#34;:1.0,&#34;a&#34;:0.82999998331069946},&#34;position&#34;:0.38461053371429443},{&#34;color&#34;:{&#34;r&#34;:1.0,&#34;g&#34;:1.0,&#34;b&#34;:1.0,&#34;a&#34;:1.0},&#34;position&#34;:0.57669824361801147}],&#34;stopsVar&#34;:[{&#34;color&#34;:{&#34;r&#34;:1.0,&#34;g&#34;:1.0,&#34;b&#34;:1.0,&#34;a&#34;:1.0},&#34;position&#34;:0.18452964723110199},{&#34;color&#34;:{&#34;r&#34;:1.0,&#34;g&#34;:1.0,&#34;b&#34;:1.0,&#34;a&#34;:0.82999998331069946},&#34;position&#34;:0.38461053371429443},{&#34;color&#34;:{&#34;r&#34;:1.0,&#34;g&#34;:1.0,&#34;b&#34;:1.0,&#34;a&#34;:1.0},&#34;position&#34;:0.57669824361801147}],&#34;transform&#34;:{&#34;m00&#34;:-6.8384442329406738,&#34;m01&#34;:-25.889265060424805,&#34;m02&#34;:40.363853454589844,&#34;m10&#34;:25.521421432495117,&#34;m11&#34;:-6.9370074272155762,&#34;m12&#34;:14.707794189453125},&#34;opacity&#34;:1.0,&#34;blendMode&#34;:&#34;NORMAL&#34;,&#34;visible&#34;:true}"/>
    <path d="M33.3415 40.1799L7.82007 33.3415L9.82157 25.8718L28.1845 30.7921L33.0215 12.7404L40.1799 14.6585L35.343 32.7102L33.3415 40.1799Z" fill="url(#paint1_linear_2012_138)"/>
    <defs>
        <clipPath id="paint0_angular_2012_138_clip_path"><path d="M14.6585 7.82007L40.1799 14.6585L38.1784 22.1282L19.8155 17.2079L14.9785 35.2596L7.82006 33.3415L12.657 15.2898L14.6585 7.82007Z"/></clipPath><linearGradient id="paint1_linear_2012_138" x1="27.4192" y1="11.2393" x2="20.5808" y2="36.7607" gradientUnits="userSpaceOnUse">
        <stop stop-color="white"/>
        <stop offset="1" stop-color="white"/>
    </linearGradient>
    </defs>
</svg>